<?xml version="1.0" encoding="UTF-8" standalone="no"?>
<svg
   xmlns:dc="http://purl.org/dc/elements/1.1/"
   xmlns:cc="http://creativecommons.org/ns#"
   xmlns:rdf="http://www.w3.org/1999/02/22-rdf-syntax-ns#"
   xmlns:svg="http://www.w3.org/2000/svg"
   xmlns="http://www.w3.org/2000/svg"
   xmlns:sodipodi="http://sodipodi.sourceforge.net/DTD/sodipodi-0.dtd"
   xmlns:inkscape="http://www.inkscape.org/namespaces/inkscape"
   width="348.54764"
   height="348.44473"
   viewBox="0 0 278.83811 278.75578"
   version="1.1"
   id="svg2"
   inkscape:version="0.47 r22583"
   sodipodi:docname="delhi metro.svg">
  <metadata
     id="metadata12">
    <rdf:RDF>
      <cc:Work
         rdf:about="">
        <dc:format>image/svg+xml</dc:format>
        <dc:type
           rdf:resource="http://purl.org/dc/dcmitype/StillImage" />
      </cc:Work>
    </rdf:RDF>
  </metadata>
  <defs
     id="defs10">
    <inkscape:perspective
       sodipodi:type="inkscape:persp3d"
       inkscape:vp_x="0 : 138.75 : 1"
       inkscape:vp_y="0 : 1000 : 0"
       inkscape:vp_z="277.5 : 138.75 : 1"
       inkscape:persp3d-origin="138.75 : 92.5 : 1"
       id="perspective14" />
  </defs>
  <sodipodi:namedview
     pagecolor="#ffffff"
     bordercolor="#666666"
     borderopacity="1"
     objecttolerance="10"
     gridtolerance="10"
     guidetolerance="10"
     inkscape:pageopacity="0"
     inkscape:pageshadow="2"
     inkscape:window-width="1280"
     inkscape:window-height="722"
     id="namedview8"
     showgrid="false"
     inkscape:zoom="1.2027186"
     inkscape:cx="131.31527"
     inkscape:cy="189.73005"
     inkscape:window-x="-8"
     inkscape:window-y="20"
     inkscape:window-maximized="1"
     inkscape:current-layer="svg2" />
  <g
     id="#ffffffff"
     transform="translate(-1.7875267,59.08325)" />
  <g
     id="#c0282cff"
     transform="matrix(1.2803064,0,0,1.2803064,-2.2885818,-2.4923649)">
    <path
       d="m 103.3,2.2 c 21.75,-1.5 43.92,3.69 62.67,14.82 23.25,13.66 41.16,36.21 48.91,62.07 7.28,23.84 6.09,50.22 -3.51,73.25 -10.23,25.05 -30.23,45.9 -54.81,57.21 -22.26,10.46 -48.14,12.88 -72,6.95 C 60.44,210.66 38.61,196.14 23.71,176.31 9.17,157.17 1.31,133.06 1.81,109.03 2.13,81.28 13.68,53.9 33.27,34.27 51.69,15.54 77.08,3.89 103.3,2.2 M 79.9,26.94 c -20.48,7.4 -37.86,22.73 -48.12,41.9 52.6,-0.02 105.19,-0.02 157.79,0 C 179.61,49.95 162.58,34.94 142.62,27.35 122.68,19.67 99.93,19.51 79.9,26.94 M 24.84,86.05 c -4.42,14.87 -4.7,30.88 -0.99,45.93 15.92,-0.16 31.88,0.3 47.78,-0.22 16.34,-15.08 32.56,-30.34 48.66,-45.69 -31.81,0.05 -63.63,0.09 -95.45,-0.02 m 117.46,1.24 c -15.76,14.96 -31.7,29.75 -47.49,44.68 34.31,-0.04 68.62,0.11 102.94,-0.07 3.32,-15.07 3.15,-30.87 -1.05,-45.75 -16.59,-0.12 -33.17,0.03 -49.76,-0.07 -1.6,0.09 -3.54,-0.27 -4.64,1.21 M 29.92,149.21 c 11.41,23.93 33.79,42.33 59.64,48.45 17.4,4.2 36.08,3.12 52.82,-3.28 21.31,-8.01 39.27,-24.55 48.99,-45.15 -53.82,0 -107.64,0.04 -161.45,-0.02 z"
       id="path6"
       style="fill:#c0282c" />
  </g>
</svg>
