<?xml version="1.0" encoding="UTF-8" standalone="no"?>
<svg xmlns="http://www.w3.org/2000/svg" version="1" height="1000" width="1000" viewBox="0 0 1000 1000">
  <path d="M500 0c-276 0-500 224-500 500 0 276 224 500 500 500 276 0 500-224 500-500 0-276-224-500-500-500z" fill="#ffffff"/>
  <path d="M500 0c-276 0-500 224-500 500 0 276 224 500 500 500 276 0 500-224 500-500 0-276-224-500-500-500z m0 47c250 0 453 203 454 453 0 250-203 453-454 453-250 0-453-203-453-453 0-250 203-453 453-453z m-323 155v552h169v-177l154 154 154-154v177h169v-552h-172l-99 97v-75h-104v75l-99-97h-172z m45 45h109l117 116v134l-145-145-1 357h-80v-462z m447 0h109v462h-79v-357l-147 145v-134l117-116z" fill="#e2001a"/>
</svg>
