<?xml version="1.0" encoding="utf-8"?>
<!-- Generator: Adobe Illustrator 16.0.0, SVG Export Plug-In . SVG Version: 6.00 Build 0)  -->
<!DOCTYPE svg PUBLIC "-//W3C//DTD SVG 1.1//EN" "http://www.w3.org/Graphics/SVG/1.1/DTD/svg11.dtd">
<svg version="1.1" id="Calque_1" xmlns="http://www.w3.org/2000/svg" xmlns:xlink="http://www.w3.org/1999/xlink" x="0px" y="0px"
	 width="500px" height="500px" viewBox="0 0 500 500" enable-background="new 0 0 500 500" xml:space="preserve">
<rect x="0.245" fill="#1D1D1B" width="499.581" height="499.582"/>
<g>
	<path fill="#FFFFFF" d="M472.664,470.573c-3.546,0.118-7.013,0.314-10.231,0.758c1.385-7.464,4.601-15.09,5.306-21.979
		c-0.197-1.939-3.485-0.64-4.17-1.136c0.732-2.301,1.345-4.549,1.895-7.2c6.799-0.444,13.979-1.648,13.265,6.44
		C478.11,454.441,473.251,465.531,472.664,470.573z"/>
	<path fill="#FFFFFF" d="M456.747,471.711c-3.574,0.09-7.068,0.256-10.23,0.756c1.233-7.858,4.081-14.105,5.304-21.979
		c-0.252-1.516-2.438-1.098-4.166-1.137c0.603-2.429,1.187-4.875,1.894-7.2c6.581-0.536,12.666-1.293,13.263,4.927
		c0.321,3.354-1.854,8.137-3.032,12.507C458.484,464.391,457.466,468.791,456.747,471.711z"/>
	<path fill="#FFFFFF" d="M440.452,472.847c-3.49-0.157-7.73,0.792-10.231,0.38c1.616-7.233,4.872-14.822,5.305-21.979
		c-1.544-1.116-2.134-0.358-4.546-0.378c0.349-2.811,1.049-5.27,1.895-7.58c7.55-0.451,14.584-1.795,13.643,7.199
		C445.792,457.399,441.115,468.03,440.452,472.847z"/>
	<path fill="#FFFFFF" d="M430.221,443.667c-0.58,2.453-1.354,4.71-1.896,7.202c-2.971,0.438-6.5,0.317-9.473,0.758
		c-2.697,7.155-4.452,15.252-6.442,23.116c-3.412,0.249-6.997,0.327-10.231,0.757c1.601-8.128,3.883-15.571,6.062-23.117
		c-3.692,0.096-7.196,0.386-10.609,0.76c0.411-2.748,1.386-4.932,1.896-7.58C410.058,445.23,419.73,444.041,430.221,443.667z"/>
	<path fill="#FFFFFF" d="M369.391,478.172c-3.309,0.229-7.034-0.179-10.034,0.359c1.418-6.539,3.39-12.527,4.925-18.946
		c3.739-0.356,9.046-0.407,13.267-0.694c3.952-0.271,7.699,1.191,7.968-3.023c0.548-2.959-13.769-0.573-20.097-0.452
		c0.276-2.884,1.178-5.139,1.896-7.579c15.715-0.387,23.635-1.917,26.498,1.031c5.283,5.44-1.18,14.822-8.687,15.264
		c1.788,4.276,4.11,8.527,6.371,12.328c-3.177,0.424-6.979,0.192-10.541,0.557c-2.586-3.982-4.388-9.979-7.859-13.073
		L369.391,478.172z"/>
</g>
<g>
	<path fill="#FFFFFF" d="M34.552,172.576h24.625l36.485,118.005l36.226-118.005h24.452v139.573h-16.411v-82.376
		c0-2.851,0.056-7.568,0.172-14.157c0.115-6.587,0.173-13.649,0.173-21.188l-36.227,117.721H87.016L50.444,194.429v4.276
		c0,3.42,0.086,8.631,0.259,15.629c0.173,7,0.259,12.146,0.259,15.439v82.376H34.552V172.576z"/>
	<path fill="#FFFFFF" d="M237.405,213.194c6.123,3.389,10.788,7.776,13.992,13.159c3.092,5.13,5.151,11.116,6.182,17.958
		c0.914,4.688,1.374,12.162,1.374,22.422h-67.286c0.286,10.354,2.486,18.66,6.6,24.916c4.113,6.256,10.484,9.385,19.111,9.385
		c8.055,0,14.483-2.959,19.283-8.877c2.686-3.436,4.588-7.413,5.708-11.932h15.289c-0.403,3.738-1.742,7.902-4.017,12.495
		c-2.275,4.592-4.812,8.346-7.611,11.259c-4.688,5.067-10.488,8.486-17.402,10.26c-3.715,1.014-7.916,1.521-12.602,1.521
		c-11.444,0-21.144-4.608-29.099-13.823c-7.955-9.216-11.93-22.122-11.93-38.718c0-16.342,4.006-29.611,12.018-39.811
		c8.011-10.197,18.484-15.296,31.419-15.296C224.958,208.111,231.281,209.806,237.405,213.194z M242.974,253.146
		c-0.629-7.411-2.085-13.333-4.369-17.767c-4.226-8.234-11.277-12.352-21.155-12.352c-7.081,0-13.019,2.835-17.814,8.503
		c-4.797,5.67-7.338,12.875-7.623,21.616H242.974z M236.754,169.441l-23.062,27.458h-11.92l15.807-27.458H236.754z"/>
	<path fill="#FFFFFF" d="M281.755,181.982h15.721v28.409h14.77v13.967h-14.77v66.414c0,3.548,1.093,5.923,3.282,7.126
		c1.209,0.697,3.224,1.045,6.046,1.045c0.748,0,1.555-0.021,2.419-0.062c0.862-0.043,1.87-0.15,3.022-0.318v13.587
		c-1.785,0.569-3.642,0.98-5.57,1.234c-1.93,0.252-4.018,0.381-6.263,0.381c-7.256,0-12.178-2.043-14.77-6.129
		s-3.888-9.39-3.888-15.915v-67.363h-12.523v-13.967h12.523V181.982z"/>
	<path fill="#FFFFFF" d="M328.225,210.391h14.771v17.577c1.209-3.421,4.174-7.584,8.896-12.494
		c4.721-4.908,10.162-7.363,16.324-7.363c0.287,0,0.777,0.032,1.469,0.095c0.691,0.064,1.871,0.19,3.542,0.38v18.052
		c-0.923-0.19-1.771-0.316-2.548-0.38c-0.778-0.062-1.628-0.095-2.549-0.095c-7.831,0-13.851,2.771-18.052,8.313
		c-4.205,5.543-6.306,11.924-6.306,19.145v58.528h-15.548V210.391z"/>
	<path fill="#FFFFFF" d="M453.728,220.546c8.176,8.734,12.266,21.58,12.266,38.54c0,16.394-3.604,29.937-10.808,40.631
		c-7.204,10.695-18.384,16.042-33.535,16.042c-12.638,0-22.672-4.729-30.106-14.19c-7.433-9.461-11.148-22.166-11.148-38.115
		c0-17.087,3.917-30.692,11.75-40.819c7.834-10.125,18.355-15.188,31.562-15.188C435.544,207.446,445.55,211.813,453.728,220.546z
		 M444.073,288.175c3.788-8.572,5.682-18.111,5.682-28.612c0-9.489-1.367-17.207-4.101-23.154
		c-4.327-9.363-11.786-14.046-22.377-14.046c-9.395,0-16.228,3.986-20.496,11.958c-4.271,7.972-6.406,17.587-6.406,28.848
		c0,10.82,2.135,19.834,6.406,27.046c4.269,7.211,11.044,10.818,20.327,10.818C433.3,301.033,440.286,296.746,444.073,288.175z"/>
</g>
</svg>
