<?xml version="1.0" encoding="utf-8"?>
<!-- Generator: Adobe Illustrator 18.0.0, SVG Export Plug-In . SVG Version: 6.00 Build 0)  -->
<!DOCTYPE svg PUBLIC "-//W3C//DTD SVG 1.1//EN" "http://www.w3.org/Graphics/SVG/1.1/DTD/svg11.dtd">
<svg version="1.1" id="Layer_1" xmlns="http://www.w3.org/2000/svg" xmlns:xlink="http://www.w3.org/1999/xlink" x="0px" y="0px"
	 viewBox="0 0 207 207" enable-background="new 0 0 207 207" xml:space="preserve">
<path fill-rule="evenodd" clip-rule="evenodd" fill="#EC1C24" d="M175.8,100.5H161l-29.6-38.7l-26.5,31.1L80.3,61.8L50,100.5H31.3
	c1.6-38.5,33.4-69.4,72.3-69.4c34.1,0,62.7,23.7,70.3,55.4h31.8C197.6,37.5,154.9,0,103.5,0C46.3,0,0,46.3,0,103.5
	c0,9.5,1.3,18.7,3.7,27.4h44.1v0h12.1l20.8-22l24.2,30l25.4-30.2l16.4,22.5h23.2c-11.1,25.6-36.7,47.4-66.4,47.4
	c-24.5,0-46.2-14.5-59.3-34H8.6c16,36.6,52.4,62.2,94.9,62.2c57.2,0,103.5-46.3,103.5-103.5c0-1,0-2-0.1-3L175.8,100.5
	C175.8,100.5,175.8,100.5,175.8,100.5z"/>
</svg>
