<?xml version="1.0" encoding="UTF-8"?>
<svg width="300" height="300" version="1.1" viewBox="0 0 300 300" xmlns="http://www.w3.org/2000/svg">
 <g transform="translate(-153 -414)">
  <g transform="matrix(5.77 0 0 -5.77 452 697)">
   <path d="m0 0c0-1.48-1.2-2.69-2.68-2.69h-46.3c-1.48 0-2.68 1.21-2.68 2.69v46.3c0 1.49 1.2 2.69 2.68 2.69h46.3c1.48 0 2.68-1.2 2.68-2.69v-46.3z" style="fill:#00a3d9"/>
  </g>
  <g transform="matrix(5.77 0 0 -5.77 303 597)">
   <path d="m0 0c-1.41 0-2.6 0.365-2.6 1.56 0 1.12 0.946 2.8 2.6 4.63 1.65-1.83 2.6-3.51 2.6-4.63 0-1.2-1.18-1.56-2.6-1.56m0-3.48c4.26 0 6.02 1.42 6.02 3.57 0 2.54-2.53 5.63-4.37 7.54 3.45 3.11 7.93 5.41 9.69 3.65 2.04-2.04 0.045-8.08-4.76-14.8l6.35-1.8c5.36 9.59 6.5 19 2.78 21.6-2.9 1.98-10.2-2.01-15.7-7.06-5.5 5.05-12.8 9.04-15.7 7.06-3.72-2.54-2.59-12 2.77-21.6l6.35 1.8c-4.81 6.68-6.8 12.7-4.75 14.8 1.76 1.76 6.23-0.537 9.69-3.65-1.83-1.92-4.38-5.01-4.38-7.54 0-2.15 1.76-3.57 6.02-3.57" style="fill:#fff"/>
  </g>
 </g>
</svg>
